#N canvas 98 756 823 312 12;
#X obj 39 174 vstplugin~;
#X msg 39 4 open -e ValhallaSuperMassive;
#X obj 338 81 osc~ 2000;
#X obj 338 167 *~;
#X obj 338 201 *~ 0.75;
#X obj 448 14 bng 19 250 50 0 empty empty empty 0 -10 0 12 #fcfcfc #000000 #000000;
#X msg 448 53 1 50;
#X obj 502 43 del 50;
#X msg 502 67 0 300;
#X obj 448 77 line;
#X floatatom 447 133 5 0 0 0 - - - 0;
#X obj 38 226 dac~;
#X obj 107 225 print;
#X msg 147 126 param_list;
#X msg 39 27 open -e Tremolo.vst3;
#X obj 171 192 osc~ 400;
#X msg 39 50 open -e AudioProcessorGraphTutorial.vst3;
#X msg 39 76 open -e DSPDelayLineTutorial.vst3;
#X connect 0 0 11 0;
#X connect 0 1 11 1;
#X connect 0 2 12 0;
#X connect 1 0 0 0;
#X connect 2 0 3 0;
#X connect 3 0 4 0;
#X connect 5 0 6 0;
#X connect 5 0 7 0;
#X connect 6 0 9 0;
#X connect 7 0 8 0;
#X connect 8 0 9 0;
#X connect 9 0 10 0;
#X connect 10 0 3 1;
#X connect 13 0 0 0;
#X connect 14 0 0 0;
#X connect 16 0 0 0;
#X connect 17 0 0 0;
